<?xml version="1.0" encoding="UTF-8" standalone="no"?>
<svg
   width="1024"
   height="1024"
   viewBox="0 0 1024 1024"
   version="1.1"
   id="svg11"
   sodipodi:docname="a-3d-isometric-logo-of-a-mechanical-gear-lying-fla.svg"
   inkscape:version="1.4.2 (f4327f4, 2025-05-13)"
   xmlns:inkscape="http://www.inkscape.org/namespaces/inkscape"
   xmlns:sodipodi="http://sodipodi.sourceforge.net/DTD/sodipodi-0.dtd"
   xmlns="http://www.w3.org/2000/svg"
   xmlns:svg="http://www.w3.org/2000/svg">
  <defs
     id="defs11" />
  <sodipodi:namedview
     id="namedview11"
     pagecolor="#ffffff"
     bordercolor="#000000"
     borderopacity="0.25"
     inkscape:showpageshadow="2"
     inkscape:pageopacity="0.0"
     inkscape:pagecheckerboard="0"
     inkscape:deskcolor="#d1d1d1"
     inkscape:zoom="0.88623047"
     inkscape:cx="117.91515"
     inkscape:cy="401.13719"
     inkscape:window-width="3840"
     inkscape:window-height="2054"
     inkscape:window-x="-11"
     inkscape:window-y="-11"
     inkscape:window-maximized="1"
     inkscape:current-layer="svg11" />
  <path
     fill="#e07e00"
     d="m 683.99411,315.3136 c 8.85557,-4.73903 22.37206,-12.10247 31.54189,-15.17278 14.02699,4.99677 88.8051,36.74765 96.20738,49.53681 0.65805,9.08674 -29.73893,50.80483 -35.79411,63.67863 20.83464,17.28361 37.36988,30.88926 56.19498,51.57051 11.72677,-0.0227 28.47299,-2.85394 40.65715,-4.47187 16.55589,-2.37611 33.17521,-3.94699 49.82553,-4.71269 11.61169,9.352 49.58943,73.96753 47.87799,90.40078 -5.95052,9.04724 -71.15007,26.03923 -85.55182,33.69241 1.02839,12.72708 2.46546,24.49657 2.48611,37.33838 0.0178,10.50338 -1.17591,19.91558 -1.59493,30.10664 18.87379,7.88457 38.60481,13.48336 57.79435,20.13004 7.0998,2.45887 14.68655,4.4982 21.53699,7.90339 1.9342,0.96135 4.0294,2.02617 5.03706,4.52644 2.01694,5.00051 -0.46614,12.51448 -2.16888,17.17259 -5.83085,15.95354 -28.5895,66.96905 -40.95662,72.35713 -9.33658,4.0674 -73.8663,-5.01556 -89.23594,-6.27605 -20.07923,20.09993 -29.62383,32.82701 -52.18917,49.49731 l 0.56951,1.18711 c 6.93899,14.31489 28.81678,48.30832 37.34185,63.8216 2.97153,5.4069 -7.24439,12.46182 -12.92481,15.56409 -24.47752,13.36674 -50.54998,30.83283 -76.45719,39.18773 -9.60509,2.93296 -60.53423,-35.86344 -71.60592,-43.17046 -11.28414,3.01009 -22.04008,6.79719 -33.43489,9.65489 -14.00042,3.51241 -28.34757,5.70226 -42.23144,9.01525 -2.12612,11.58699 -9.35427,61.07301 -15.19553,66.12811 -7.12784,6.16505 -67.9852,5.19992 -79.3564,4.74654 -12.43647,-0.49478 -24.93195,-2.11647 -37.34775,-2.29708 -3.08956,-12.83431 -16.13391,-57.69983 -20.93941,-70.31967 -25.31113,-4.58663 -47.99154,-11.10914 -72.68742,-16.60445 -20.67974,14.92445 -42.38195,31.69069 -63.16201,45.85885 -35.5359,-15.47003 -65.95056,-29.04182 -99.11398,-52.55257 12.08679,-22.86732 26.12704,-43.87782 39.4473,-65.60132 -16.59573,-15.38348 -38.93679,-34.36781 -52.58754,-53.16023 -31.10664,3.42211 -60.79097,4.60546 -91.701389,7.34653 -18.656906,-28.86496 -32.91405,-54.31912 -41.192736,-91.38659 27.328052,-11.97644 54.924635,-22.9313 82.754335,-32.8477 -2.89776,-24.28772 -2.42561,-41.31737 1.28806,-65.43765 -27.78986,-11.8598 -56.597784,-21.00673 -84.091078,-33.9953 5.948957,-30.63529 27.925603,-71.54439 45.869873,-94.02608 12.458595,2.24629 25.851125,3.04962 38.464645,4.98361 16.43785,2.52283 32.70454,5.79254 49.09372,8.51292 24.54093,-23.71205 37.00395,-36.55012 65.37219,-56.10636 -14.99782,-20.49311 -30.09007,-37.2349 -43.53869,-60.66666 22.55799,-14.45786 42.56933,-26.03546 66.55257,-36.67239 10.40183,-4.61298 21.34514,-8.26836 31.27189,-12.69697 16.75654,9.34634 46.95137,32.28894 63.44086,44.58896 25.43802,-7.28444 46.49398,-13.55674 72.34954,-19.59762 0.0236,26.33648 0.2774,52.67297 0.76134,79.00379 l -2.01841,-0.31417 c -5.75862,4.45306 -14.62896,9.4423 -20.89367,13.22374 -14.88864,9.16763 -29.98679,17.76898 -45.27526,25.79466 -5.28946,-1.15136 -39.05779,-23.41104 -42.99277,-27.43893 0.73329,6.51688 1.15821,25.09859 0.57394,31.70011 -40.89766,24.00553 -85.97079,55.61532 -106.13855,110.53645 -10.16575,27.12663 -11.38447,58.31501 -3.38465,86.59489 14.79864,51.59308 62.44937,95.42388 101.05566,117.30729 107.20677,58.82675 241.49221,60.72122 351.08181,12.2323 C 739.96335,745.8047 830.53455,668.31725 799.91038,566.91267 781.26674,505.17932 729.02003,465.9013 683.51164,439.95237 c 0.84986,-8.29471 0.20214,-27.14921 0.30246,-36.36575 0.31574,-28.97973 -0.85132,-59.39677 0.18001,-88.27302 z"
     id="path2"
     style="stroke-width:0.999998" />
  <path
     fill="#ffd9b5"
     d="m 331.49146,416.31745 c 2.47578,-4.48128 53.25443,-31.37652 61.49918,-36.04404 4.08105,1.57652 12.86433,6.55636 17.13573,8.80454 10.12887,5.3655 20.30497,10.58613 30.52679,15.66003 -5.75862,4.45306 -14.62896,9.4423 -20.89367,13.22374 -14.88864,9.16763 -29.98679,17.76898 -45.27526,25.79466 -5.28946,-1.15136 -39.05779,-23.41104 -42.99277,-27.43893 z"
     id="path3"
     style="stroke-width:0.999998" />
  <path
     fill="#ffad41"
     d="m 634.12579,59.188068 c 13.68469,5.843365 37.28283,23.634921 49.3947,27.764407 0.8956,18.497055 0.3541,44.669865 0.36885,63.669225 l 0.0339,114.62832 c -0.0146,14.89246 -0.52819,35.76749 0.0708,50.06358 -1.03134,28.87625 0.13575,59.29329 -0.18001,88.27302 -0.10027,9.21654 0.54739,28.07104 -0.30246,36.36575 -0.97674,13.02054 -0.23607,27.50664 -0.36296,40.64197 -0.28475,29.37857 1.51823,63.30613 0.32607,92.3705 l -44.94034,29.40303 c -4.35106,2.8295 -17.90443,11.96515 -21.88516,13.5812 -13.43534,-7.64566 -26.90756,-15.18219 -40.41961,-22.60584 l -0.006,-323.29587 -0.16377,-106.62144 c -0.0412,-22.98588 0.25673,-48.10138 -0.7805,-70.904759 4.47352,-7.331485 49.31207,-29.222421 58.84634,-33.333093 z"
     id="path4"
     style="stroke-width:0.999998" />
  <path
     fill="#ffcd7b"
     d="m 575.27945,92.521161 c 12.53975,8.302209 29.41728,18.054939 41.12635,26.865129 0.67721,48.15404 0.10328,97.52531 -0.009,145.77154 -0.48837,95.5838 -0.46623,191.17135 0.0649,286.75327 0.15049,21.03683 -0.18443,43.16481 0.18739,64.03797 -13.43535,-7.64566 -26.90756,-15.18219 -40.41962,-22.60584 l -0.006,-323.29587 -0.16377,-106.62144 c -0.0412,-22.98588 0.25673,-48.10138 -0.78049,-70.904759 z"
     id="path5"
     style="stroke-width:0.999998" />
  <path
     fill="#ffd9b5"
     d="m 634.12579,59.188068 c 13.68469,5.843365 37.28283,23.634921 49.3947,27.764407 -6.87996,1.89636 -23.697,10.599312 -31.09632,14.491745 -11.34611,5.96563 -24.97915,11.85038 -36.01837,17.94207 -11.70907,-8.81019 -28.5866,-18.56292 -41.12635,-26.865129 4.47352,-7.331485 49.31208,-29.222421 58.84634,-33.333093 z"
     id="path6"
     style="stroke-width:0.999998" />
  <path
     fill="#ffad41"
     d="m 455.90034,240.90585 0.26409,-1.07236 c 3.21204,-4.14076 52.60526,-31.10183 59.82162,-34.52394 15.2634,8.44145 30.26713,17.626 44.97723,27.53299 0.96789,7.46881 0.52083,33.20139 0.5105,42.13009 l -0.0722,83.97423 0.81443,286.31491 c -20.69152,13.0958 -44.62016,27.1718 -64.71563,40.72664 -3.92909,-0.79767 -33.74325,-19.09343 -40.11125,-22.60771 0.37625,-99.2091 0.21542,-198.42005 -0.48099,-297.62538 L 456.6647,286.8155 c -0.028,-12.61608 0.34821,-34.08185 -0.76428,-45.90965 z"
     id="path7"
     style="stroke-width:0.999998" />
  <path
     fill="#ffcd7b"
     d="m 455.90034,240.90585 c 13.87058,8.09527 27.63346,16.48404 41.28568,25.16254 1.34413,51.17355 0.38657,112.54006 0.16672,164.21779 l 0.14756,255.70223 c -3.9291,-0.79767 -33.74326,-19.09343 -40.11126,-22.60771 0.37626,-99.2091 0.21543,-198.42005 -0.48099,-297.62538 l -0.24344,-78.93982 c -0.028,-12.61608 0.3482,-34.08185 -0.76427,-45.90965 z"
     id="path8"
     style="stroke-width:0.999998" />
  <path
     fill="#ffd9b5"
     d="m 455.90034,240.90585 0.26409,-1.07236 c 3.21204,-4.14076 52.60526,-31.10183 59.82162,-34.52394 15.2634,8.44145 30.26713,17.626 44.97723,27.53299 -20.85825,9.32942 -42.9913,23.01974 -63.77726,33.22585 -13.65222,-8.6785 -27.4151,-17.06727 -41.28568,-25.16254 z"
     id="path9"
     style="stroke-width:0.999998" />
  <path
     fill="#ffad41"
     d="m 440.65316,404.73798 2.01841,0.31417 c 0.91182,11.49859 0.55181,28.30057 0.5341,40.24314 l -0.0944,63.60716 0.17852,206.39115 c -7.41702,5.3053 -63.49397,41.40578 -68.01471,40.63446 -0.66542,-0.11294 -0.78198,-0.29538 -1.2851,-0.71302 -12.59729,-7.69645 -28.6412,-16.81517 -41.5734,-23.35273 l -0.29362,-177.52432 c 0.0738,-32.56175 1.12429,-74.31934 -0.0576,-106.32043 0.58428,-6.60152 0.15936,-25.18323 -0.57394,-31.70011 3.93499,4.02789 37.70332,26.28757 42.99277,27.43893 15.28848,-8.02568 30.38663,-16.62703 45.27527,-25.79466 6.2647,-3.78144 15.13505,-8.77068 20.89366,-13.22374 z"
     id="path10"
     style="stroke-width:0.999998" />
  <path
     fill="#ffcd7b"
     d="m 331.49146,416.31745 c 3.93498,4.02789 37.70331,26.28757 42.99277,27.43893 1.18772,23.26429 0.30246,59.50212 0.30394,83.52648 l -0.14755,155.68981 c -0.0562,11.29162 1.02838,63.74071 -0.65066,72.24237 -12.59729,-7.69645 -28.6412,-16.81517 -41.5734,-23.35273 l -0.29363,-177.52432 c 0.0738,-32.56175 1.1243,-74.31934 -0.0576,-106.32043 0.58427,-6.60152 0.15935,-25.18323 -0.57394,-31.70011 z"
     id="path11"
     style="stroke-width:0.999998" />
</svg>
